<svg data-v-423bf9ae="" xmlns="http://www.w3.org/2000/svg" viewBox="0 0 287 93" class="iconLeftSlogan"><!----><!----><!----><g data-v-423bf9ae="" id="9be48a3c-2b31-46f5-96a1-c7aac489a3c8" fill="black" transform="matrix(5.917159562968884,0,0,5.917159562968884,105.52875376310317,-24.91124246265788)"><path d="M1.29 14.08L5.26 14.08C8.23 14.08 10.37 12.01 10.37 9.18C10.37 6.34 8.25 4.28 5.31 4.28L1.29 4.28ZM2.94 12.60L2.94 5.77L5.28 5.77C7.21 5.77 8.71 7.20 8.71 9.20C8.71 11.19 7.25 12.60 5.35 12.60ZM11.65 11.41C11.65 12.99 12.98 14.15 14.73 14.15C15.81 14.15 16.81 13.68 17.68 12.85L19.21 14.35L20.03 13.51L18.44 11.96C18.83 11.42 19.17 10.79 19.46 10.09L18.41 9.31C18.16 9.98 17.86 10.57 17.53 11.07C16.69 10.25 16.00 9.55 15.47 8.95C16.67 8.32 17.85 7.62 17.85 6.27C17.85 5.07 16.84 4.21 15.37 4.21C13.85 4.21 12.82 5.12 12.82 6.43C12.82 7.13 13.12 7.83 13.76 8.69C12.66 9.28 11.65 10.02 11.65 11.41ZM12.98 11.28C12.98 10.49 13.61 9.97 14.42 9.51C15.04 10.21 15.82 11.00 16.80 11.98C16.18 12.59 15.50 12.94 14.78 12.94C13.78 12.94 12.98 12.26 12.98 11.28ZM14.10 6.41C14.10 5.74 14.60 5.22 15.39 5.22C16.11 5.22 16.58 5.64 16.58 6.29C16.58 7.15 15.78 7.66 14.83 8.15C14.34 7.48 14.10 6.93 14.10 6.41ZM21.42 14.08L25.40 14.08C28.36 14.08 30.51 12.01 30.51 9.18C30.51 6.34 28.38 4.28 25.44 4.28L21.42 4.28ZM23.07 12.60L23.07 5.77L25.41 5.77C27.34 5.77 28.84 7.20 28.84 9.20C28.84 11.19 27.38 12.60 25.48 12.60Z"></path></g><!----><g data-v-423bf9ae="" id="0094e433-371f-45a5-ae8f-ca44cee24aee" transform="matrix(1.0152777777777777,0,0,1.0152777777777777,-3.6405594170093494,-3.447760413752661)" stroke="none" fill="black"><path d="M30.917 82.868l52.195-17.802-41.458-33.987zM80.891 14.657l1.255-.516-47.84-10.066 7.357 25.434zM83.625 14.614l-1.624.668.008.021L42.318 30.33l41.307 33.863zM33.408 4.573L4.484 43.216 40.723 29.86zM71.796 87.147l21.962-29.348-9.246 7.78zM23.979 83.508l26.178 7.607-20.012-6.998zM84.625 17.348v46.828l11.037-9.287zM31.782 83.631L65.583 95.45l.742-.992 16.684-28.299zM5.269 48.243l14.008 33.794 9.95.984zM40.66 30.949L3.902 44.497l26.096 37.881z"></path></g><!----><g data-v-423bf9ae="" id="c4691be1-7bba-4f86-bc12-b16fba2ead59" fill="black" transform="matrix(0.493663323163582,0,0,0.493663323163582,112.85582122238733,58.370910130918254)"><path d="M0.62 8.90L0.62 8.90L0.62 8.90Q0.62 7.38 1.20 6.16L1.20 6.16L1.20 6.16Q1.79 4.94 3.02 4.19L3.02 4.19L3.02 4.19Q4.24 3.44 5.92 3.44L5.92 3.44L5.92 3.44Q6.78 3.44 7.64 3.70L7.64 3.70L7.64 3.70Q8.51 3.95 9.03 4.20L9.03 4.20L9.55 4.47L9.55 4.47Q9.59 4.47 9.69 4.40L9.69 4.40L9.69 4.40Q9.79 4.33 9.84 4.33L9.84 4.33L9.84 4.33Q9.91 4.33 9.98 4.38L9.98 4.38L9.98 4.38Q10.05 4.44 10.05 4.55L10.05 4.55L10.05 4.55Q10.07 4.96 10.12 5.41L10.12 5.41L10.12 5.41Q10.16 5.87 10.21 6.16L10.21 6.16L10.21 6.16Q10.25 6.45 10.25 6.51L10.25 6.51L10.25 6.51Q10.25 6.76 10.08 6.76L10.08 6.76L10.08 6.76Q9.95 6.76 9.84 6.57L9.84 6.57L9.84 6.57Q8.48 4.02 5.92 4.02L5.92 4.02L5.92 4.02Q4.17 4.02 3.05 5.14L3.05 5.14L3.05 5.14Q1.93 6.26 1.93 8.06L1.93 8.06L1.93 8.06Q1.93 9.06 2.19 9.93L2.19 9.93L2.19 9.93Q2.45 10.79 2.98 11.51L2.98 11.51L2.98 11.51Q3.50 12.24 4.42 12.66L4.42 12.66L4.42 12.66Q5.35 13.08 6.58 13.08L6.58 13.08L6.58 13.08Q8.60 13.08 9.97 10.98L9.97 10.98L9.97 10.98Q10.02 10.88 10.18 10.88L10.18 10.88L10.18 10.88Q10.30 10.88 10.30 11.07L10.30 11.07L10.30 11.07Q10.30 11.23 10.26 11.49L10.26 11.49L10.26 11.49Q10.21 11.75 10.14 12.06L10.14 12.06L10.14 12.06Q10.07 12.38 10.05 12.45L10.05 12.45L10.05 12.45Q10.02 12.60 9.83 12.70L9.83 12.70L9.83 12.70Q9.07 13.06 8.64 13.24L8.64 13.24L8.64 13.24Q8.22 13.43 7.56 13.57L7.56 13.57L7.56 13.57Q6.90 13.72 6.22 13.72L6.22 13.72L6.22 13.72Q5.00 13.72 4.02 13.43L4.02 13.43L4.02 13.43Q3.04 13.13 2.42 12.66L2.42 12.66L2.42 12.66Q1.79 12.18 1.37 11.54L1.37 11.54L1.37 11.54Q0.95 10.91 0.78 10.25L0.78 10.25L0.78 10.25Q0.62 9.60 0.62 8.90ZM18.58 3.65L18.58 3.65L18.58 3.65Q18.58 3.50 18.97 3.50L18.97 3.50L18.97 3.50Q19.11 3.50 19.61 3.53L19.61 3.53L19.61 3.53Q20.12 3.56 20.55 3.56L20.55 3.56L20.55 3.56Q20.82 3.56 21.06 3.54L21.06 3.54L21.06 3.54Q21.31 3.53 21.78 3.53L21.78 3.53L21.78 3.53Q22.09 3.53 22.09 3.72L22.09 3.72L22.09 3.72Q22.09 3.96 21.60 3.96L21.60 3.96L21.60 3.96Q21.32 3.96 21.20 4.54L21.20 4.54L21.20 4.54Q21.07 5.11 21.07 5.71L21.07 5.71L21.07 6.23L21.07 6.23Q21.07 6.57 21.06 6.99L21.06 6.99L21.06 6.99Q21.04 7.42 21.04 7.52L21.04 7.52L21.04 7.52Q21.04 7.87 21.13 7.97L21.13 7.97L21.13 7.97Q21.21 8.06 21.52 8.06L21.52 8.06L21.52 8.06Q21.55 8.06 22.06 8.06L22.06 8.06L22.06 8.06Q22.58 8.05 23.81 8.05L23.81 8.05L23.81 8.05Q23.93 8.05 24.19 8.06L24.19 8.06L24.19 8.06Q24.46 8.06 25.07 8.07L25.07 8.07L25.07 8.07Q25.68 8.08 26.46 8.08L26.46 8.08L26.46 8.08Q26.56 8.08 26.59 7.84L26.59 7.84L26.59 7.84Q26.61 7.56 26.61 6.13L26.61 6.13L26.61 5.38L26.61 5.38Q26.61 4.83 26.50 4.51L26.50 4.51L26.50 4.51Q26.38 4.19 26.20 4.09L26.20 4.09L26.20 4.09Q26.03 3.99 25.85 3.96L25.85 3.96L25.85 3.96Q25.68 3.93 25.56 3.88L25.56 3.88L25.56 3.88Q25.44 3.84 25.44 3.70L25.44 3.70L25.44 3.70Q25.44 3.56 25.98 3.56L25.98 3.56L25.98 3.56Q26.12 3.56 26.59 3.57L26.59 3.57L26.59 3.57Q27.05 3.58 27.34 3.58L27.34 3.58L27.34 3.58Q27.48 3.58 27.82 3.57L27.82 3.57L27.82 3.57Q28.15 3.56 28.43 3.56L28.43 3.56L28.43 3.56Q28.76 3.56 28.76 3.74L28.76 3.74L28.76 3.74Q28.76 3.92 28.56 3.92L28.56 3.92L28.56 3.92Q28.17 3.92 27.97 4.16L27.97 4.16L27.97 4.16Q27.76 4.40 27.76 4.79L27.76 4.79L27.76 4.79Q27.76 5.25 27.74 6.42L27.74 6.42L27.74 6.42Q27.72 7.59 27.72 8.19L27.72 8.19L27.72 8.19Q27.72 8.51 27.71 9.20L27.71 9.20L27.71 9.20Q27.69 9.90 27.69 10.29L27.69 10.29L27.69 10.81L27.69 10.81Q27.69 11.23 27.72 11.58L27.72 11.58L27.72 11.58Q27.75 11.94 27.75 12.10L27.75 12.10L27.75 12.10Q27.75 13.01 28.92 13.13L28.92 13.13L28.92 13.13Q29.09 13.13 29.09 13.29L29.09 13.29L29.09 13.29Q29.09 13.38 28.95 13.41L28.95 13.41L28.95 13.41Q28.81 13.44 28.41 13.44L28.41 13.44L28.41 13.44Q28.25 13.44 27.90 13.40L27.90 13.40L27.90 13.40Q27.54 13.37 27.33 13.37L27.33 13.37L27.33 13.37Q27.08 13.37 26.72 13.40L26.72 13.40L26.72 13.40Q26.36 13.44 26.01 13.44L26.01 13.44L26.01 13.44Q25.84 13.44 25.77 13.44L25.77 13.44L25.77 13.44Q25.70 13.44 25.63 13.42L25.63 13.42L25.63 13.42Q25.55 13.40 25.53 13.36L25.53 13.36L25.53 13.36Q25.51 13.33 25.51 13.26L25.51 13.26L25.51 13.26Q25.51 13.17 25.65 13.10L25.65 13.10L25.65 13.10Q25.79 13.03 25.96 12.99L25.96 12.99L25.96 12.99Q26.12 12.95 26.29 12.83L26.29 12.83L26.29 12.83Q26.45 12.71 26.47 12.53L26.47 12.53L26.47 12.53Q26.57 12.03 26.57 11.51L26.57 11.51L26.57 11.51Q26.57 11.37 26.58 11.12L26.58 11.12L26.58 11.12Q26.59 10.86 26.59 10.75L26.59 10.75L26.59 10.75Q26.59 10.50 26.60 9.93L26.60 9.93L26.60 9.93Q26.61 9.35 26.61 9.03L26.61 9.03L26.61 9.03Q26.61 8.82 26.45 8.74L26.45 8.74L26.45 8.74Q26.28 8.65 25.73 8.65L25.73 8.65L25.73 8.65Q25.52 8.65 24.77 8.68L24.77 8.68L24.01 8.69L24.01 8.69Q23.39 8.69 22.62 8.67L22.62 8.67L22.62 8.67Q21.85 8.65 21.43 8.65L21.43 8.65L21.43 8.65Q21.22 8.65 21.15 8.74L21.15 8.74L21.15 8.74Q21.08 8.82 21.08 9.17L21.08 9.17L21.08 9.17Q21.08 9.52 21.06 10.08L21.06 10.08L21.06 10.08Q21.03 10.64 21.03 10.89L21.03 10.89L21.03 11.49L21.03 11.49Q21.03 12.10 21.14 12.39L21.14 12.39L21.14 12.39Q21.25 12.68 21.69 12.96L21.69 12.96L21.69 12.96Q21.80 13.03 22.29 13.03L22.29 13.03L22.29 13.03Q22.39 13.03 22.47 13.08L22.47 13.08L22.47 13.08Q22.55 13.13 22.55 13.19L22.55 13.19L22.55 13.19Q22.55 13.44 22.11 13.44L22.11 13.44L22.11 13.44Q21.69 13.44 21.41 13.41L21.41 13.41L21.41 13.41Q21.14 13.38 20.94 13.38L20.94 13.38L20.94 13.38Q20.55 13.38 20.10 13.42L20.10 13.42L20.10 13.42Q19.66 13.45 19.43 13.45L19.43 13.45L19.43 13.45Q18.77 13.45 18.77 13.24L18.77 13.24L18.77 13.24Q18.77 13.12 18.91 13.07L18.91 13.07L18.91 13.07Q19.04 13.02 19.21 13.00L19.21 13.00L19.21 13.00Q19.38 12.98 19.56 12.82L19.56 12.82L19.56 12.82Q19.74 12.66 19.81 12.35L19.81 12.35L19.81 12.35Q19.85 12.11 19.92 10.91L19.92 10.91L19.92 10.91Q19.99 9.70 19.99 8.61L19.99 8.61L19.99 7.81L19.99 7.81Q19.99 7.63 20.00 7.12L20.00 7.12L20.00 7.12Q20.01 6.61 20.01 6.30L20.01 6.30L20.01 6.30Q20.01 5.24 19.92 4.63L19.92 4.63L19.92 4.63Q19.88 4.28 19.55 4.09L19.55 4.09L19.55 4.09Q19.22 3.89 18.87 3.89L18.87 3.89L18.87 3.89Q18.73 3.89 18.66 3.80L18.66 3.80L18.66 3.80Q18.58 3.71 18.58 3.65ZM36.65 13.33L36.65 13.33L36.65 13.33Q36.65 13.13 36.86 13.06L36.86 13.06L36.86 13.06Q37.31 12.89 37.65 12.31L37.65 12.31L37.65 12.31Q37.98 11.73 39.31 8.83L39.31 8.83L39.31 8.83Q40.68 5.87 41.73 3.63L41.73 3.63L41.73 3.63Q41.83 3.42 41.91 3.36L41.91 3.36L41.91 3.36Q41.99 3.30 42.15 3.30L42.15 3.30L42.15 3.30Q42.28 3.30 42.32 3.36L42.32 3.36L42.32 3.36Q42.36 3.42 42.50 3.82L42.50 3.82L42.50 3.82Q42.59 4.06 42.65 4.23L42.65 4.23L42.65 4.23Q42.71 4.40 42.85 4.77L42.85 4.77L42.85 4.77Q42.99 5.15 43.16 5.56L43.16 5.56L43.16 5.56Q43.61 6.66 44.71 9.22L44.71 9.22L44.71 9.22Q45.81 11.77 45.91 11.98L45.91 11.98L45.91 11.98Q46.14 12.46 46.44 12.71L46.44 12.71L46.44 12.71Q46.73 12.95 46.95 12.97L46.95 12.97L46.95 12.97Q47.17 12.99 47.31 13.04L47.31 13.04L47.31 13.04Q47.46 13.09 47.46 13.26L47.46 13.26L47.46 13.26Q47.46 13.47 47.08 13.47L47.08 13.47L47.08 13.47Q46.93 13.47 46.48 13.43L46.48 13.43L46.48 13.43Q46.03 13.38 45.82 13.38L45.82 13.38L45.82 13.38Q45.56 13.38 45.14 13.41L45.14 13.41L45.14 13.41Q44.72 13.44 44.52 13.44L44.52 13.44L44.52 13.44Q44.09 13.44 43.97 13.40L43.97 13.40L43.97 13.40Q43.85 13.37 43.85 13.24L43.85 13.24L43.85 13.24Q43.85 13.15 43.96 13.08L43.96 13.08L43.96 13.08Q44.07 13.02 44.20 13.00L44.20 13.00L44.20 13.00Q44.32 12.98 44.44 12.87L44.44 12.87L44.44 12.87Q44.55 12.77 44.55 12.59L44.55 12.59L44.55 12.59Q44.55 12.28 44.20 11.33L44.20 11.33L44.20 11.33Q43.85 10.37 43.61 9.93L43.61 9.93L43.61 9.93Q43.48 9.69 43.04 9.69L43.04 9.69L43.04 9.69Q42.97 9.69 42.42 9.70L42.42 9.70L42.42 9.70Q41.87 9.72 41.34 9.72L41.34 9.72L40.60 9.72L40.60 9.72Q39.97 9.72 39.81 9.79L39.81 9.79L39.81 9.79Q39.65 9.86 39.52 10.12L39.52 10.12L39.52 10.12Q39.44 10.30 39.24 10.70L39.24 10.70L39.24 10.70Q39.05 11.10 38.98 11.26L38.98 11.26L38.98 11.26Q38.91 11.41 38.80 11.65L38.80 11.65L38.80 11.65Q38.70 11.90 38.66 12.05L38.66 12.05L38.66 12.05Q38.63 12.19 38.63 12.31L38.63 12.31L38.63 12.31Q38.63 12.63 38.79 12.80L38.79 12.80L38.79 12.80Q38.95 12.96 39.14 12.98L39.14 12.98L39.14 12.98Q39.34 13.01 39.50 13.06L39.50 13.06L39.50 13.06Q39.66 13.12 39.66 13.26L39.66 13.26L39.66 13.26Q39.66 13.36 39.62 13.40L39.62 13.40L39.62 13.40Q39.58 13.45 39.42 13.45L39.42 13.45L39.42 13.45Q39.34 13.45 38.94 13.45L38.94 13.45L38.94 13.45Q38.54 13.44 38.26 13.44L38.26 13.44L38.26 13.44Q37.95 13.44 37.57 13.47L37.57 13.47L37.57 13.47Q37.18 13.50 37.06 13.50L37.06 13.50L37.06 13.50Q36.65 13.50 36.65 13.33ZM40.17 8.71L40.17 8.71L40.17 8.71Q40.17 8.89 40.29 8.93L40.29 8.93L40.29 8.93Q40.42 8.97 40.88 8.97L40.88 8.97L41.31 8.97L42.64 8.96L42.64 8.96Q43.19 8.96 43.19 8.74L43.19 8.74L43.19 8.74Q43.19 8.55 42.50 7.01L42.50 7.01L42.50 7.01Q41.82 5.46 41.64 5.46L41.64 5.46L41.64 5.46Q41.51 5.46 40.84 7.01L40.84 7.01L40.84 7.01Q40.17 8.55 40.17 8.71ZM55.02 3.70L55.02 3.70L55.02 3.70Q55.02 3.47 55.43 3.47L55.43 3.47L57.75 3.47L57.75 3.47Q58.07 3.47 58.49 3.45L58.49 3.45L58.49 3.45Q58.91 3.43 59.15 3.43L59.15 3.43L59.15 3.43Q60.41 3.43 61.31 4.07L61.31 4.07L61.31 4.07Q62.20 4.70 62.20 5.78L62.20 5.78L62.20 5.78Q62.20 6.50 61.93 7.03L61.93 7.03L61.93 7.03Q61.66 7.57 61.33 7.81L61.33 7.81L61.33 7.81Q61.00 8.05 60.73 8.22L60.73 8.22L60.73 8.22Q60.45 8.40 60.45 8.46L60.45 8.46L60.45 8.46Q60.45 8.62 61.63 10.27L61.63 10.27L61.63 10.27Q62.80 11.91 63.24 12.38L63.24 12.38L63.24 12.38Q63.77 13.03 64.53 13.03L64.53 13.03L64.53 13.03Q64.72 13.03 64.72 13.20L64.72 13.20L64.72 13.20Q64.72 13.41 64.55 13.48L64.55 13.48L64.55 13.48Q64.39 13.55 63.69 13.55L63.69 13.55L63.69 13.55Q63.03 13.55 62.48 13.23L62.48 13.23L62.48 13.23Q61.78 12.82 60.12 10.09L60.12 10.09L60.12 10.09Q60.02 9.94 59.98 9.87L59.98 9.87L59.98 9.87Q59.30 8.78 58.94 8.78L58.94 8.78L58.65 8.78L57.79 8.78L57.79 8.78Q57.62 8.78 57.59 8.92L57.59 8.92L57.59 8.92Q57.55 9.06 57.55 9.77L57.55 9.77L57.55 9.77Q57.55 10.44 57.55 10.88L57.55 10.88L57.55 10.88Q57.55 11.31 57.56 11.43L57.56 11.43L57.56 11.43Q57.57 11.55 57.57 11.63L57.57 11.63L57.57 11.63Q57.57 11.70 57.57 11.75L57.57 11.75L57.57 11.75Q57.57 12.32 57.83 12.63L57.83 12.63L57.83 12.63Q58.10 12.95 58.43 13.00L58.43 13.00L58.43 13.00Q58.76 13.05 59.02 13.11L59.02 13.11L59.02 13.11Q59.29 13.17 59.29 13.31L59.29 13.31L59.29 13.31Q59.29 13.54 59.04 13.54L59.04 13.54L59.04 13.54Q59.02 13.54 58.07 13.49L58.07 13.49L58.07 13.49Q57.12 13.44 57.04 13.44L57.04 13.44L57.04 13.44Q56.63 13.44 56.07 13.47L56.07 13.47L56.07 13.47Q55.51 13.50 55.50 13.50L55.50 13.50L55.50 13.50Q55.20 13.50 55.20 13.27L55.20 13.27L55.20 13.27Q55.20 13.12 55.38 13.05L55.38 13.05L55.38 13.05Q55.57 12.99 55.79 12.96L55.79 12.96L55.79 12.96Q56.01 12.94 56.20 12.66L56.20 12.66L56.20 12.66Q56.38 12.38 56.38 11.86L56.38 11.86L56.38 11.86Q56.38 11.49 56.39 9.90L56.39 9.90L56.39 9.90Q56.39 8.30 56.39 7.45L56.39 7.45L56.39 7.45Q56.39 6.58 56.39 5.86L56.39 5.86L56.39 5.86Q56.38 5.14 56.38 5.08L56.38 5.08L56.38 5.08Q56.38 4.56 56.17 4.29L56.17 4.29L56.17 4.29Q55.96 4.02 55.70 3.98L55.70 3.98L55.70 3.98Q55.44 3.95 55.23 3.89L55.23 3.89L55.23 3.89Q55.02 3.84 55.02 3.70ZM57.55 5.54L57.55 5.94L57.55 5.94Q57.55 7.38 57.57 7.72L57.57 7.72L57.57 7.72Q57.58 8.06 57.67 8.12L57.67 8.12L57.67 8.12Q57.88 8.25 58.27 8.25L58.27 8.25L58.41 8.25L58.81 8.25L58.81 8.25Q60.00 8.25 60.52 7.70L60.52 7.70L60.52 7.70Q61.03 7.15 61.03 6.30L61.03 6.30L61.03 6.30Q61.03 5.43 60.35 4.72L60.35 4.72L60.35 4.72Q59.67 4.00 58.30 4.00L58.30 4.00L58.30 4.00Q57.78 4.00 57.67 4.28L57.67 4.28L57.67 4.28Q57.55 4.55 57.55 5.54L57.55 5.54ZM72.07 13.33L72.07 13.33L72.07 13.33Q72.07 13.13 72.28 13.06L72.28 13.06L72.28 13.06Q72.73 12.89 73.07 12.31L73.07 12.31L73.07 12.31Q73.40 11.73 74.73 8.83L74.73 8.83L74.73 8.83Q76.10 5.87 77.15 3.63L77.15 3.63L77.15 3.63Q77.25 3.42 77.33 3.36L77.33 3.36L77.33 3.36Q77.41 3.30 77.57 3.30L77.57 3.30L77.57 3.30Q77.70 3.30 77.74 3.36L77.74 3.36L77.74 3.36Q77.78 3.42 77.92 3.82L77.92 3.82L77.92 3.82Q78.01 4.06 78.07 4.23L78.07 4.23L78.07 4.23Q78.13 4.40 78.27 4.77L78.27 4.77L78.27 4.77Q78.41 5.15 78.58 5.56L78.58 5.56L78.58 5.56Q79.03 6.66 80.13 9.22L80.13 9.22L80.13 9.22Q81.23 11.77 81.33 11.98L81.33 11.98L81.33 11.98Q81.56 12.46 81.86 12.71L81.86 12.71L81.86 12.71Q82.15 12.95 82.37 12.97L82.37 12.97L82.37 12.97Q82.59 12.99 82.73 13.04L82.73 13.04L82.73 13.04Q82.88 13.09 82.88 13.26L82.88 13.26L82.88 13.26Q82.88 13.47 82.50 13.47L82.50 13.47L82.50 13.47Q82.35 13.47 81.90 13.43L81.90 13.43L81.90 13.43Q81.45 13.38 81.24 13.38L81.24 13.38L81.24 13.38Q80.98 13.38 80.56 13.41L80.56 13.41L80.56 13.41Q80.14 13.44 79.94 13.44L79.94 13.44L79.94 13.44Q79.51 13.44 79.39 13.40L79.39 13.40L79.39 13.40Q79.27 13.37 79.27 13.24L79.27 13.24L79.27 13.24Q79.27 13.15 79.38 13.08L79.38 13.08L79.38 13.08Q79.49 13.02 79.62 13.00L79.62 13.00L79.62 13.00Q79.74 12.98 79.86 12.87L79.86 12.87L79.86 12.87Q79.97 12.77 79.97 12.59L79.97 12.59L79.97 12.59Q79.97 12.28 79.62 11.33L79.62 11.33L79.62 11.33Q79.27 10.37 79.03 9.93L79.03 9.93L79.03 9.93Q78.90 9.69 78.46 9.69L78.46 9.69L78.46 9.69Q78.39 9.69 77.84 9.70L77.84 9.70L77.84 9.70Q77.29 9.72 76.76 9.72L76.76 9.72L76.02 9.72L76.02 9.72Q75.39 9.72 75.23 9.79L75.23 9.79L75.23 9.79Q75.07 9.86 74.94 10.12L74.94 10.12L74.94 10.12Q74.86 10.30 74.66 10.70L74.66 10.70L74.66 10.70Q74.47 11.10 74.40 11.26L74.40 11.26L74.40 11.26Q74.33 11.41 74.22 11.65L74.22 11.65L74.22 11.65Q74.12 11.90 74.08 12.05L74.08 12.05L74.08 12.05Q74.05 12.19 74.05 12.31L74.05 12.31L74.05 12.31Q74.05 12.63 74.21 12.80L74.21 12.80L74.21 12.80Q74.37 12.96 74.56 12.98L74.56 12.98L74.56 12.98Q74.76 13.01 74.92 13.06L74.92 13.06L74.92 13.06Q75.08 13.12 75.08 13.26L75.08 13.26L75.08 13.26Q75.08 13.36 75.04 13.40L75.04 13.40L75.04 13.40Q75.00 13.45 74.84 13.45L74.84 13.45L74.84 13.45Q74.76 13.45 74.36 13.45L74.36 13.45L74.36 13.45Q73.96 13.44 73.68 13.44L73.68 13.44L73.68 13.44Q73.37 13.44 72.99 13.47L72.99 13.47L72.99 13.47Q72.60 13.50 72.48 13.50L72.48 13.50L72.48 13.50Q72.07 13.50 72.07 13.33ZM75.59 8.71L75.59 8.71L75.59 8.71Q75.59 8.89 75.71 8.93L75.71 8.93L75.71 8.93Q75.84 8.97 76.30 8.97L76.30 8.97L76.73 8.97L78.06 8.96L78.06 8.96Q78.61 8.96 78.61 8.74L78.61 8.74L78.61 8.74Q78.61 8.55 77.92 7.01L77.92 7.01L77.92 7.01Q77.24 5.46 77.06 5.46L77.06 5.46L77.06 5.46Q76.93 5.46 76.26 7.01L76.26 7.01L76.26 7.01Q75.59 8.55 75.59 8.71ZM90.09 8.90L90.09 8.90L90.09 8.90Q90.09 7.38 90.68 6.16L90.68 6.16L90.68 6.16Q91.27 4.94 92.49 4.19L92.49 4.19L92.49 4.19Q93.72 3.44 95.40 3.44L95.40 3.44L95.40 3.44Q96.25 3.44 97.12 3.70L97.12 3.70L97.12 3.70Q97.99 3.95 98.50 4.20L98.50 4.20L99.02 4.47L99.02 4.47Q99.06 4.47 99.16 4.40L99.16 4.40L99.16 4.40Q99.26 4.33 99.32 4.33L99.32 4.33L99.32 4.33Q99.39 4.33 99.46 4.38L99.46 4.38L99.46 4.38Q99.53 4.44 99.53 4.55L99.53 4.55L99.53 4.55Q99.54 4.96 99.59 5.41L99.59 5.41L99.59 5.41Q99.64 5.87 99.68 6.16L99.68 6.16L99.68 6.16Q99.72 6.45 99.72 6.51L99.72 6.51L99.72 6.51Q99.72 6.76 99.55 6.76L99.55 6.76L99.55 6.76Q99.43 6.76 99.32 6.57L99.32 6.57L99.32 6.57Q97.96 4.02 95.40 4.02L95.40 4.02L95.40 4.02Q93.65 4.02 92.53 5.14L92.53 5.14L92.53 5.14Q91.41 6.26 91.41 8.06L91.41 8.06L91.41 8.06Q91.41 9.06 91.66 9.93L91.66 9.93L91.66 9.93Q91.92 10.79 92.45 11.51L92.45 11.51L92.45 11.51Q92.97 12.24 93.90 12.66L93.90 12.66L93.90 12.66Q94.82 13.08 96.05 13.08L96.05 13.08L96.05 13.08Q98.07 13.08 99.44 10.98L99.44 10.98L99.44 10.98Q99.50 10.88 99.65 10.88L99.65 10.88L99.65 10.88Q99.78 10.88 99.78 11.07L99.78 11.07L99.78 11.07Q99.78 11.23 99.73 11.49L99.73 11.49L99.73 11.49Q99.68 11.75 99.61 12.06L99.61 12.06L99.61 12.06Q99.54 12.38 99.53 12.45L99.53 12.45L99.53 12.45Q99.50 12.60 99.30 12.70L99.30 12.70L99.30 12.70Q98.55 13.06 98.12 13.24L98.12 13.24L98.12 13.24Q97.69 13.43 97.03 13.57L97.03 13.57L97.03 13.57Q96.38 13.72 95.69 13.72L95.69 13.72L95.69 13.72Q94.47 13.72 93.49 13.43L93.49 13.43L93.49 13.43Q92.51 13.13 91.89 12.66L91.89 12.66L91.89 12.66Q91.27 12.18 90.85 11.54L90.85 11.54L90.85 11.54Q90.43 10.91 90.26 10.25L90.26 10.25L90.26 10.25Q90.09 9.60 90.09 8.90ZM108.05 5.32L108.05 5.32L108.05 5.32Q108.05 4.76 108.19 3.88L108.19 3.88L108.19 3.88Q108.19 3.85 108.20 3.78L108.20 3.78L108.20 3.78Q108.21 3.71 108.21 3.69L108.21 3.69L108.21 3.69Q108.22 3.67 108.23 3.62L108.23 3.62L108.23 3.62Q108.23 3.57 108.25 3.55L108.25 3.55L108.25 3.55Q108.26 3.53 108.28 3.49L108.28 3.49L108.28 3.49Q108.30 3.46 108.33 3.44L108.33 3.44L108.33 3.44Q108.36 3.43 108.40 3.42L108.40 3.42L108.40 3.42Q108.44 3.40 108.50 3.39L108.50 3.39L108.50 3.39Q108.56 3.39 108.63 3.39L108.63 3.39L108.63 3.39Q108.85 3.39 109.81 3.44L109.81 3.44L109.81 3.44Q110.77 3.50 112.57 3.50L112.57 3.50L112.57 3.50Q115.65 3.50 116.89 3.43L116.89 3.43L116.89 3.43Q116.90 3.43 116.93 3.42L116.93 3.42L116.93 3.42Q116.97 3.42 116.98 3.42L116.98 3.42L116.98 3.42Q117.14 3.42 117.19 3.50L117.19 3.50L117.19 3.50Q117.25 3.58 117.25 3.65L117.25 3.65L117.25 3.65Q117.25 3.75 117.29 4.24L117.29 4.24L117.29 4.24Q117.33 4.73 117.33 4.79L117.33 4.79L117.33 4.79Q117.33 5.14 117.29 5.23L117.29 5.23L117.29 5.23Q117.25 5.32 117.11 5.32L117.11 5.32L117.11 5.32Q117.00 5.32 116.96 5.15L116.96 5.15L116.96 5.15Q116.84 4.75 116.76 4.60L116.76 4.60L116.76 4.60Q116.68 4.45 116.40 4.34L116.40 4.34L116.40 4.34Q116.12 4.23 115.54 4.23L115.54 4.23L113.72 4.23L113.72 4.23Q113.39 4.23 113.31 4.36L113.31 4.36L113.31 4.36Q113.23 4.49 113.23 5.12L113.23 5.12L113.23 5.81L113.23 5.81Q113.23 7.69 113.21 9.11L113.21 9.11L113.21 9.11Q113.19 10.54 113.19 10.93L113.19 10.93L113.19 10.93Q113.19 11.13 113.18 11.43L113.18 11.43L113.18 11.43Q113.18 11.73 113.18 11.84L113.18 11.84L113.18 11.84Q113.18 12.45 113.37 12.64L113.37 12.64L113.37 12.64Q113.55 12.81 113.78 12.90L113.78 12.90L113.78 12.90Q114.00 12.99 114.16 13.01L114.16 13.01L114.16 13.01Q114.32 13.02 114.44 13.08L114.44 13.08L114.44 13.08Q114.55 13.13 114.55 13.26L114.55 13.26L114.55 13.26Q114.55 13.41 114.48 13.45L114.48 13.45L114.48 13.45Q114.41 13.50 114.21 13.50L114.21 13.50L114.21 13.50Q114.04 13.50 113.47 13.44L113.47 13.44L113.47 13.44Q112.90 13.38 112.66 13.38L112.66 13.38L112.66 13.38Q112.49 13.38 111.98 13.43L111.98 13.43L111.98 13.43Q111.47 13.48 111.23 13.48L111.23 13.48L111.23 13.48Q110.71 13.48 110.71 13.26L110.71 13.26L110.71 13.26Q110.71 13.12 110.80 13.07L110.80 13.07L110.80 13.07Q110.88 13.02 111.12 12.98L111.12 12.98L111.12 12.98Q111.37 12.95 111.44 12.94L111.44 12.94L111.44 12.94Q111.92 12.82 111.97 12.38L111.97 12.38L111.97 12.38Q112.11 11.14 112.11 7.08L112.11 7.08L112.10 4.58L112.10 4.58Q112.10 4.31 111.94 4.25L111.94 4.25L111.94 4.25Q111.79 4.19 111.03 4.19L111.03 4.19L111.03 4.19Q110.05 4.19 109.56 4.24L109.56 4.24L109.56 4.24Q109.06 4.30 108.98 4.35L108.98 4.35L108.98 4.35Q108.89 4.40 108.78 4.54L108.78 4.54L108.78 4.54Q108.65 4.70 108.58 4.91L108.58 4.91L108.58 4.91Q108.50 5.11 108.48 5.24L108.48 5.24L108.48 5.24Q108.46 5.38 108.39 5.47L108.39 5.47L108.39 5.47Q108.33 5.56 108.21 5.56L108.21 5.56L108.21 5.56Q108.05 5.56 108.05 5.32ZM124.89 3.65L124.89 3.65L124.89 3.65Q124.89 3.46 125.29 3.46L125.29 3.46L125.29 3.46Q125.34 3.46 125.47 3.47L125.47 3.47L125.47 3.47Q125.59 3.49 125.66 3.49L125.66 3.49L125.66 3.49Q125.71 3.49 126.98 3.52L126.98 3.52L126.98 3.52Q128.25 3.56 129.08 3.56L129.08 3.56L129.08 3.56Q129.37 3.56 130.53 3.53L130.53 3.53L130.53 3.53Q131.68 3.50 131.88 3.50L131.88 3.50L131.88 3.50Q132.15 3.50 132.15 3.82L132.15 3.82L132.15 3.82Q132.15 3.91 132.06 4.38L132.06 4.38L132.06 4.38Q131.98 4.84 131.98 5.25L131.98 5.25L131.98 5.25Q131.98 5.38 131.91 5.47L131.91 5.47L131.91 5.47Q131.84 5.56 131.75 5.56L131.75 5.56L131.75 5.56Q131.54 5.56 131.54 5.26L131.54 5.26L131.54 5.26Q131.54 4.89 131.31 4.58L131.31 4.58L131.31 4.58Q131.07 4.27 130.72 4.26L130.72 4.26L130.72 4.26Q129.46 4.16 128.79 4.16L128.79 4.16L128.42 4.16L128.42 4.16Q127.69 4.16 127.57 4.26L127.57 4.26L127.57 4.26Q127.46 4.37 127.43 5.01L127.43 5.01L127.43 5.01Q127.37 6.02 127.37 7.35L127.37 7.35L127.37 7.35Q127.37 8.05 127.64 8.06L127.64 8.06L127.99 8.06L128.58 8.06L129.01 8.06L129.01 8.06Q129.85 8.06 130.13 8.01L130.13 8.01L130.13 8.01Q130.41 7.95 130.63 7.80L130.63 7.80L130.63 7.80Q130.90 7.62 130.96 7.28L130.96 7.28L130.96 7.28Q131.00 7.04 131.15 7.04L131.15 7.04L131.15 7.04Q131.28 7.04 131.31 7.08L131.31 7.08L131.31 7.08Q131.33 7.13 131.33 7.27L131.33 7.27L131.33 7.27Q131.33 7.36 131.28 7.91L131.28 7.91L131.28 7.91Q131.22 8.46 131.22 8.74L131.22 8.74L131.22 8.74Q131.22 9.00 131.24 9.24L131.24 9.24L131.24 9.24Q131.26 9.48 131.26 9.59L131.26 9.59L131.26 9.59Q131.26 9.94 131.17 9.94L131.17 9.94L131.17 9.94Q130.96 9.94 130.86 9.60L130.86 9.60L130.86 9.60Q130.66 9.02 130.51 8.92L130.51 8.92L130.51 8.92Q130.21 8.72 129.16 8.72L129.16 8.72L129.16 8.72Q128.74 8.72 128.48 8.72L128.48 8.72L128.48 8.72Q128.23 8.72 128.15 8.71L128.15 8.71L128.15 8.71Q128.07 8.71 128.02 8.71L128.02 8.71L128.02 8.71Q127.97 8.71 127.93 8.71L127.93 8.71L127.93 8.71Q127.36 8.71 127.36 8.97L127.36 8.97L127.36 8.97Q127.36 9.38 127.34 9.99L127.34 9.99L127.34 9.99Q127.33 10.60 127.33 10.99L127.33 10.99L127.33 11.55L127.33 11.55Q127.33 12.56 127.67 12.66L127.67 12.66L127.67 12.66Q128.02 12.77 128.27 12.77L128.27 12.77L128.27 12.77Q129.32 12.77 130.11 12.67L130.11 12.67L130.11 12.67Q130.90 12.57 131.30 12.42L131.30 12.42L131.30 12.42Q131.70 12.28 131.96 12.10L131.96 12.10L131.96 12.10Q132.23 11.93 132.31 11.78L132.31 11.78L132.31 11.78Q132.38 11.63 132.46 11.54L132.46 11.54L132.46 11.54Q132.54 11.44 132.62 11.44L132.62 11.44L132.62 11.44Q132.79 11.44 132.79 11.68L132.79 11.68L132.79 11.68Q132.79 12.28 132.19 12.89L132.19 12.89L132.19 12.89Q131.59 13.51 131.14 13.51L131.14 13.51L131.14 13.51Q130.13 13.51 128.86 13.44L128.86 13.44L128.86 13.44Q127.60 13.37 127.29 13.37L127.29 13.37L127.29 13.37Q126.90 13.37 126.31 13.43L126.31 13.43L126.31 13.43Q125.72 13.50 125.38 13.50L125.38 13.50L125.38 13.50Q125.09 13.50 125.09 13.36L125.09 13.36L125.09 13.36Q125.09 13.23 125.09 13.19L125.09 13.19L125.09 13.19Q125.09 13.15 125.13 13.12L125.13 13.12L125.13 13.12Q125.17 13.09 125.22 13.08L125.22 13.08L125.22 13.08Q125.27 13.08 125.40 13.03L125.40 13.03L125.40 13.03Q125.54 12.99 125.69 12.92L125.69 12.92L125.69 12.92Q126.03 12.75 126.13 12.26L126.13 12.26L126.13 12.26Q126.24 11.77 126.24 10.21L126.24 10.21L126.24 8.47L126.24 8.47Q126.24 8.09 126.26 7.29L126.26 7.29L126.26 7.29Q126.28 6.50 126.28 6.05L126.28 6.05L126.28 6.05Q126.28 5.67 126.25 4.77L126.25 4.77L126.25 4.77Q126.24 4.37 125.90 4.14L125.90 4.14L125.90 4.14Q125.57 3.92 125.12 3.91L125.12 3.91L125.12 3.91Q124.89 3.91 124.89 3.65ZM140.35 3.70L140.35 3.70L140.35 3.70Q140.35 3.47 140.76 3.47L140.76 3.47L143.08 3.47L143.08 3.47Q143.40 3.47 143.82 3.45L143.82 3.45L143.82 3.45Q144.24 3.43 144.48 3.43L144.48 3.43L144.48 3.43Q145.74 3.43 146.64 4.07L146.64 4.07L146.64 4.07Q147.53 4.70 147.53 5.78L147.53 5.78L147.53 5.78Q147.53 6.50 147.26 7.03L147.26 7.03L147.26 7.03Q146.99 7.57 146.66 7.81L146.66 7.81L146.66 7.81Q146.33 8.05 146.06 8.22L146.06 8.22L146.06 8.22Q145.78 8.40 145.78 8.46L145.78 8.46L145.78 8.46Q145.78 8.62 146.96 10.27L146.96 10.27L146.96 10.27Q148.13 11.91 148.57 12.38L148.57 12.38L148.57 12.38Q149.10 13.03 149.86 13.03L149.86 13.03L149.86 13.03Q150.05 13.03 150.05 13.20L150.05 13.20L150.05 13.20Q150.05 13.41 149.88 13.48L149.88 13.48L149.88 13.48Q149.72 13.55 149.02 13.55L149.02 13.55L149.02 13.55Q148.36 13.55 147.81 13.23L147.81 13.23L147.81 13.23Q147.11 12.82 145.45 10.09L145.45 10.09L145.45 10.09Q145.35 9.94 145.31 9.87L145.31 9.87L145.31 9.87Q144.63 8.78 144.27 8.78L144.27 8.78L143.98 8.78L143.12 8.78L143.12 8.78Q142.95 8.78 142.92 8.92L142.92 8.92L142.92 8.92Q142.88 9.06 142.88 9.77L142.88 9.77L142.88 9.77Q142.88 10.44 142.88 10.88L142.88 10.88L142.88 10.88Q142.88 11.31 142.89 11.43L142.89 11.43L142.89 11.43Q142.90 11.55 142.90 11.63L142.90 11.63L142.90 11.63Q142.90 11.70 142.90 11.75L142.90 11.75L142.90 11.75Q142.90 12.32 143.16 12.63L143.16 12.63L143.16 12.63Q143.43 12.95 143.76 13.00L143.76 13.00L143.76 13.00Q144.09 13.05 144.35 13.11L144.35 13.11L144.35 13.11Q144.62 13.17 144.62 13.31L144.62 13.31L144.62 13.31Q144.62 13.54 144.37 13.54L144.37 13.54L144.37 13.54Q144.35 13.54 143.40 13.49L143.40 13.49L143.40 13.49Q142.45 13.44 142.37 13.44L142.37 13.44L142.37 13.44Q141.96 13.44 141.40 13.47L141.40 13.47L141.40 13.47Q140.84 13.50 140.83 13.50L140.83 13.50L140.83 13.50Q140.53 13.50 140.53 13.27L140.53 13.27L140.53 13.27Q140.53 13.12 140.71 13.05L140.71 13.05L140.71 13.05Q140.90 12.99 141.12 12.96L141.12 12.96L141.12 12.96Q141.34 12.94 141.53 12.66L141.53 12.66L141.53 12.66Q141.71 12.38 141.71 11.86L141.71 11.86L141.71 11.86Q141.71 11.49 141.72 9.90L141.72 9.90L141.72 9.90Q141.72 8.30 141.72 7.45L141.72 7.45L141.72 7.45Q141.72 6.58 141.72 5.86L141.72 5.86L141.72 5.86Q141.71 5.14 141.71 5.08L141.71 5.08L141.71 5.08Q141.71 4.56 141.50 4.29L141.50 4.29L141.50 4.29Q141.29 4.02 141.03 3.98L141.03 3.98L141.03 3.98Q140.77 3.95 140.56 3.89L140.56 3.89L140.56 3.89Q140.35 3.84 140.35 3.70ZM142.88 5.54L142.88 5.94L142.88 5.94Q142.88 7.38 142.90 7.72L142.90 7.72L142.90 7.72Q142.91 8.06 143.00 8.12L143.00 8.12L143.00 8.12Q143.21 8.25 143.60 8.25L143.60 8.25L143.74 8.25L144.14 8.25L144.14 8.25Q145.33 8.25 145.84 7.70L145.84 7.70L145.84 7.70Q146.36 7.15 146.36 6.30L146.36 6.30L146.36 6.30Q146.36 5.43 145.68 4.72L145.68 4.72L145.68 4.72Q145.00 4.00 143.63 4.00L143.63 4.00L143.63 4.00Q143.11 4.00 143.00 4.28L143.00 4.28L143.00 4.28Q142.88 4.55 142.88 5.54L142.88 5.54ZM167.72 8.90L167.72 8.90L167.72 8.90Q167.72 7.38 168.31 6.16L168.31 6.16L168.31 6.16Q168.90 4.94 170.12 4.19L170.12 4.19L170.12 4.19Q171.35 3.44 173.03 3.44L173.03 3.44L173.03 3.44Q173.88 3.44 174.75 3.70L174.75 3.70L174.75 3.70Q175.62 3.95 176.13 4.20L176.13 4.20L176.65 4.47L176.65 4.47Q176.69 4.47 176.79 4.40L176.79 4.40L176.79 4.40Q176.89 4.33 176.95 4.33L176.95 4.33L176.95 4.33Q177.02 4.33 177.09 4.38L177.09 4.38L177.09 4.38Q177.16 4.44 177.16 4.55L177.16 4.55L177.16 4.55Q177.17 4.96 177.22 5.41L177.22 5.41L177.22 5.41Q177.27 5.87 177.31 6.16L177.31 6.16L177.31 6.16Q177.35 6.45 177.35 6.51L177.35 6.51L177.35 6.51Q177.35 6.76 177.18 6.76L177.18 6.76L177.18 6.76Q177.06 6.76 176.95 6.57L176.95 6.57L176.95 6.57Q175.59 4.02 173.03 4.02L173.03 4.02L173.03 4.02Q171.28 4.02 170.16 5.14L170.16 5.14L170.16 5.14Q169.04 6.26 169.04 8.06L169.04 8.06L169.04 8.06Q169.04 9.06 169.29 9.93L169.29 9.93L169.29 9.93Q169.55 10.79 170.08 11.51L170.08 11.51L170.08 11.51Q170.60 12.24 171.53 12.66L171.53 12.66L171.53 12.66Q172.45 13.08 173.68 13.08L173.68 13.08L173.68 13.08Q175.70 13.08 177.07 10.98L177.07 10.98L177.07 10.98Q177.13 10.88 177.28 10.88L177.28 10.88L177.28 10.88Q177.41 10.88 177.41 11.07L177.41 11.07L177.41 11.07Q177.41 11.23 177.36 11.49L177.36 11.49L177.36 11.49Q177.31 11.75 177.24 12.06L177.24 12.06L177.24 12.06Q177.17 12.38 177.16 12.45L177.16 12.45L177.16 12.45Q177.13 12.60 176.93 12.70L176.93 12.70L176.93 12.70Q176.18 13.06 175.75 13.24L175.75 13.24L175.75 13.24Q175.32 13.43 174.66 13.57L174.66 13.57L174.66 13.57Q174.01 13.72 173.32 13.72L173.32 13.72L173.32 13.72Q172.10 13.72 171.12 13.43L171.12 13.43L171.12 13.43Q170.14 13.13 169.52 12.66L169.52 12.66L169.52 12.66Q168.90 12.18 168.48 11.54L168.48 11.54L168.48 11.54Q168.06 10.91 167.89 10.25L167.89 10.25L167.89 10.25Q167.72 9.60 167.72 8.90ZM185.68 3.70L185.68 3.70L185.68 3.70Q185.68 3.47 186.09 3.47L186.09 3.47L188.41 3.47L188.41 3.47Q188.73 3.47 189.15 3.45L189.15 3.45L189.15 3.45Q189.57 3.43 189.81 3.43L189.81 3.43L189.81 3.43Q191.07 3.43 191.97 4.07L191.97 4.07L191.97 4.07Q192.86 4.70 192.86 5.78L192.86 5.78L192.86 5.78Q192.86 6.50 192.59 7.03L192.59 7.03L192.59 7.03Q192.32 7.57 191.99 7.81L191.99 7.81L191.99 7.81Q191.66 8.05 191.39 8.22L191.39 8.22L191.39 8.22Q191.11 8.40 191.11 8.46L191.11 8.46L191.11 8.46Q191.11 8.62 192.29 10.27L192.29 10.27L192.29 10.27Q193.47 11.91 193.90 12.38L193.90 12.38L193.90 12.38Q194.43 13.03 195.19 13.03L195.19 13.03L195.19 13.03Q195.38 13.03 195.38 13.20L195.38 13.20L195.38 13.20Q195.38 13.41 195.22 13.48L195.22 13.48L195.22 13.48Q195.05 13.55 194.35 13.55L194.35 13.55L194.35 13.55Q193.69 13.55 193.14 13.23L193.14 13.23L193.14 13.23Q192.44 12.82 190.78 10.09L190.78 10.09L190.78 10.09Q190.68 9.94 190.64 9.87L190.64 9.87L190.64 9.87Q189.97 8.78 189.60 8.78L189.60 8.78L189.31 8.78L188.45 8.78L188.45 8.78Q188.29 8.78 188.25 8.92L188.25 8.92L188.25 8.92Q188.22 9.06 188.22 9.77L188.22 9.77L188.22 9.77Q188.22 10.44 188.22 10.88L188.22 10.88L188.22 10.88Q188.22 11.31 188.22 11.43L188.22 11.43L188.22 11.43Q188.23 11.55 188.23 11.63L188.23 11.63L188.23 11.63Q188.23 11.70 188.23 11.75L188.23 11.75L188.23 11.75Q188.23 12.32 188.50 12.63L188.50 12.63L188.50 12.63Q188.76 12.95 189.09 13.00L189.09 13.00L189.09 13.00Q189.42 13.05 189.69 13.11L189.69 13.11L189.69 13.11Q189.95 13.17 189.95 13.31L189.95 13.31L189.95 13.31Q189.95 13.54 189.70 13.54L189.70 13.54L189.70 13.54Q189.69 13.54 188.73 13.49L188.73 13.49L188.73 13.49Q187.78 13.44 187.70 13.44L187.70 13.44L187.70 13.44Q187.29 13.44 186.73 13.47L186.73 13.47L186.73 13.47Q186.17 13.50 186.16 13.50L186.16 13.50L186.16 13.50Q185.86 13.50 185.86 13.27L185.86 13.27L185.86 13.27Q185.86 13.12 186.05 13.05L186.05 13.05L186.05 13.05Q186.23 12.99 186.45 12.96L186.45 12.96L186.45 12.96Q186.68 12.94 186.86 12.66L186.86 12.66L186.86 12.66Q187.04 12.38 187.04 11.86L187.04 11.86L187.04 11.86Q187.04 11.49 187.05 9.90L187.05 9.90L187.05 9.90Q187.05 8.30 187.05 7.45L187.05 7.45L187.05 7.45Q187.05 6.58 187.05 5.86L187.05 5.86L187.05 5.86Q187.04 5.14 187.04 5.08L187.04 5.08L187.04 5.08Q187.04 4.56 186.83 4.29L186.83 4.29L186.83 4.29Q186.62 4.02 186.36 3.98L186.36 3.98L186.36 3.98Q186.10 3.95 185.89 3.89L185.89 3.89L185.89 3.89Q185.68 3.84 185.68 3.70ZM188.22 5.54L188.22 5.94L188.22 5.94Q188.22 7.38 188.23 7.72L188.23 7.72L188.23 7.72Q188.24 8.06 188.33 8.12L188.33 8.12L188.33 8.12Q188.54 8.25 188.93 8.25L188.93 8.25L189.07 8.25L189.48 8.25L189.48 8.25Q190.67 8.25 191.18 7.70L191.18 7.70L191.18 7.70Q191.69 7.15 191.69 6.30L191.69 6.30L191.69 6.30Q191.69 5.43 191.01 4.72L191.01 4.72L191.01 4.72Q190.33 4.00 188.96 4.00L188.96 4.00L188.96 4.00Q188.44 4.00 188.33 4.28L188.33 4.28L188.33 4.28Q188.22 4.55 188.22 5.54L188.22 5.54ZM202.73 3.65L202.73 3.65L202.73 3.65Q202.73 3.46 203.13 3.46L203.13 3.46L203.13 3.46Q203.18 3.46 203.31 3.47L203.31 3.47L203.31 3.47Q203.43 3.49 203.50 3.49L203.50 3.49L203.50 3.49Q203.55 3.49 204.82 3.52L204.82 3.52L204.82 3.52Q206.09 3.56 206.92 3.56L206.92 3.56L206.92 3.56Q207.21 3.56 208.37 3.53L208.37 3.53L208.37 3.53Q209.52 3.50 209.72 3.50L209.72 3.50L209.72 3.50Q209.99 3.50 209.99 3.82L209.99 3.82L209.99 3.82Q209.99 3.91 209.90 4.38L209.90 4.38L209.90 4.38Q209.82 4.84 209.82 5.25L209.82 5.25L209.82 5.25Q209.82 5.38 209.75 5.47L209.75 5.47L209.75 5.47Q209.68 5.56 209.59 5.56L209.59 5.56L209.59 5.56Q209.38 5.56 209.38 5.26L209.38 5.26L209.38 5.26Q209.38 4.89 209.15 4.58L209.15 4.58L209.15 4.58Q208.91 4.27 208.56 4.26L208.56 4.26L208.56 4.26Q207.30 4.16 206.63 4.16L206.63 4.16L206.26 4.16L206.26 4.16Q205.53 4.16 205.41 4.26L205.41 4.26L205.41 4.26Q205.30 4.37 205.27 5.01L205.27 5.01L205.27 5.01Q205.21 6.02 205.21 7.35L205.21 7.35L205.21 7.35Q205.21 8.05 205.48 8.06L205.48 8.06L205.83 8.06L206.42 8.06L206.85 8.06L206.85 8.06Q207.69 8.06 207.97 8.01L207.97 8.01L207.97 8.01Q208.25 7.95 208.47 7.80L208.47 7.80L208.47 7.80Q208.74 7.62 208.80 7.28L208.80 7.28L208.80 7.28Q208.84 7.04 208.99 7.04L208.99 7.04L208.99 7.04Q209.12 7.04 209.15 7.08L209.15 7.08L209.15 7.08Q209.17 7.13 209.17 7.27L209.17 7.27L209.17 7.27Q209.17 7.36 209.12 7.91L209.12 7.91L209.12 7.91Q209.06 8.46 209.06 8.74L209.06 8.74L209.06 8.74Q209.06 9.00 209.08 9.24L209.08 9.24L209.08 9.24Q209.10 9.48 209.10 9.59L209.10 9.59L209.10 9.59Q209.10 9.94 209.01 9.94L209.01 9.94L209.01 9.94Q208.80 9.94 208.70 9.60L208.70 9.60L208.70 9.60Q208.50 9.02 208.35 8.92L208.35 8.92L208.35 8.92Q208.05 8.72 207.00 8.72L207.00 8.72L207.00 8.72Q206.58 8.72 206.32 8.72L206.32 8.72L206.32 8.72Q206.07 8.72 205.99 8.71L205.99 8.71L205.99 8.71Q205.91 8.71 205.86 8.71L205.86 8.71L205.86 8.71Q205.81 8.71 205.77 8.71L205.77 8.71L205.77 8.71Q205.20 8.71 205.20 8.97L205.20 8.97L205.20 8.97Q205.20 9.38 205.18 9.99L205.18 9.99L205.18 9.99Q205.17 10.60 205.17 10.99L205.17 10.99L205.17 11.55L205.17 11.55Q205.17 12.56 205.51 12.66L205.51 12.66L205.51 12.66Q205.86 12.77 206.11 12.77L206.11 12.77L206.11 12.77Q207.16 12.77 207.95 12.67L207.95 12.67L207.95 12.67Q208.74 12.57 209.14 12.42L209.14 12.42L209.14 12.42Q209.54 12.28 209.80 12.10L209.80 12.10L209.80 12.10Q210.07 11.93 210.15 11.78L210.15 11.78L210.15 11.78Q210.22 11.63 210.30 11.54L210.30 11.54L210.30 11.54Q210.38 11.44 210.46 11.44L210.46 11.44L210.46 11.44Q210.63 11.44 210.63 11.68L210.63 11.68L210.63 11.68Q210.63 12.28 210.03 12.89L210.03 12.89L210.03 12.89Q209.43 13.51 208.98 13.51L208.98 13.51L208.98 13.51Q207.97 13.51 206.70 13.44L206.70 13.44L206.70 13.44Q205.44 13.37 205.13 13.37L205.13 13.37L205.13 13.37Q204.74 13.37 204.15 13.43L204.15 13.43L204.15 13.43Q203.56 13.50 203.22 13.50L203.22 13.50L203.22 13.50Q202.93 13.50 202.93 13.36L202.93 13.36L202.93 13.36Q202.93 13.23 202.93 13.19L202.93 13.19L202.93 13.19Q202.93 13.15 202.97 13.12L202.97 13.12L202.97 13.12Q203.01 13.09 203.06 13.08L203.06 13.08L203.06 13.08Q203.11 13.08 203.24 13.03L203.24 13.03L203.24 13.03Q203.38 12.99 203.53 12.92L203.53 12.92L203.53 12.92Q203.87 12.75 203.97 12.26L203.97 12.26L203.97 12.26Q204.08 11.77 204.08 10.21L204.08 10.21L204.08 8.47L204.08 8.47Q204.08 8.09 204.10 7.29L204.10 7.29L204.10 7.29Q204.12 6.50 204.12 6.05L204.12 6.05L204.12 6.05Q204.12 5.67 204.09 4.77L204.09 4.77L204.09 4.77Q204.08 4.37 203.74 4.14L203.74 4.14L203.74 4.14Q203.41 3.92 202.96 3.91L202.96 3.91L202.96 3.91Q202.73 3.91 202.73 3.65ZM218.19 13.33L218.19 13.33L218.19 13.33Q218.19 13.13 218.40 13.06L218.40 13.06L218.40 13.06Q218.85 12.89 219.18 12.31L219.18 12.31L219.18 12.31Q219.52 11.73 220.85 8.83L220.85 8.83L220.85 8.83Q222.22 5.87 223.27 3.63L223.27 3.63L223.27 3.63Q223.37 3.42 223.45 3.36L223.45 3.36L223.45 3.36Q223.52 3.30 223.69 3.30L223.69 3.30L223.69 3.30Q223.82 3.30 223.86 3.36L223.86 3.36L223.86 3.36Q223.90 3.42 224.04 3.82L224.04 3.82L224.04 3.82Q224.13 4.06 224.19 4.23L224.19 4.23L224.19 4.23Q224.25 4.40 224.39 4.77L224.39 4.77L224.39 4.77Q224.53 5.15 224.70 5.56L224.70 5.56L224.70 5.56Q225.15 6.66 226.25 9.22L226.25 9.22L226.25 9.22Q227.35 11.77 227.44 11.98L227.44 11.98L227.44 11.98Q227.68 12.46 227.98 12.71L227.98 12.71L227.98 12.71Q228.27 12.95 228.49 12.97L228.49 12.97L228.49 12.97Q228.70 12.99 228.85 13.04L228.85 13.04L228.85 13.04Q229.00 13.09 229.00 13.26L229.00 13.26L229.00 13.26Q229.00 13.47 228.62 13.47L228.62 13.47L228.62 13.47Q228.47 13.47 228.02 13.43L228.02 13.43L228.02 13.43Q227.57 13.38 227.36 13.38L227.36 13.38L227.36 13.38Q227.09 13.38 226.67 13.41L226.67 13.41L226.67 13.41Q226.25 13.44 226.06 13.44L226.06 13.44L226.06 13.44Q225.62 13.44 225.50 13.40L225.50 13.40L225.50 13.40Q225.39 13.37 225.39 13.24L225.39 13.24L225.39 13.24Q225.39 13.15 225.50 13.08L225.50 13.08L225.50 13.08Q225.61 13.02 225.74 13.00L225.74 13.00L225.74 13.00Q225.86 12.98 225.97 12.87L225.97 12.87L225.97 12.87Q226.09 12.77 226.09 12.59L226.09 12.59L226.09 12.59Q226.09 12.28 225.74 11.33L225.74 11.33L225.74 11.33Q225.39 10.37 225.15 9.93L225.15 9.93L225.15 9.93Q225.02 9.69 224.57 9.69L224.57 9.69L224.57 9.69Q224.50 9.69 223.96 9.70L223.96 9.70L223.96 9.70Q223.41 9.72 222.88 9.72L222.88 9.72L222.14 9.72L222.14 9.72Q221.51 9.72 221.35 9.79L221.35 9.79L221.35 9.79Q221.19 9.86 221.06 10.12L221.06 10.12L221.06 10.12Q220.98 10.30 220.78 10.70L220.78 10.70L220.78 10.70Q220.58 11.10 220.51 11.26L220.51 11.26L220.51 11.26Q220.44 11.41 220.34 11.65L220.34 11.65L220.34 11.65Q220.23 11.90 220.20 12.05L220.20 12.05L220.20 12.05Q220.16 12.19 220.16 12.31L220.16 12.31L220.16 12.31Q220.16 12.63 220.32 12.80L220.32 12.80L220.32 12.80Q220.49 12.96 220.68 12.98L220.68 12.98L220.68 12.98Q220.88 13.01 221.04 13.06L221.04 13.06L221.04 13.06Q221.20 13.12 221.20 13.26L221.20 13.26L221.20 13.26Q221.20 13.36 221.16 13.40L221.16 13.40L221.16 13.40Q221.12 13.45 220.96 13.45L220.96 13.45L220.96 13.45Q220.88 13.45 220.48 13.45L220.48 13.45L220.48 13.45Q220.08 13.44 219.80 13.44L219.80 13.44L219.80 13.44Q219.49 13.44 219.11 13.47L219.11 13.47L219.11 13.47Q218.72 13.50 218.60 13.50L218.60 13.50L218.60 13.50Q218.19 13.50 218.19 13.33ZM221.70 8.71L221.70 8.71L221.70 8.71Q221.70 8.89 221.83 8.93L221.83 8.93L221.83 8.93Q221.96 8.97 222.42 8.97L222.42 8.97L222.85 8.97L224.18 8.96L224.18 8.96Q224.73 8.96 224.73 8.74L224.73 8.74L224.73 8.74Q224.73 8.55 224.04 7.01L224.04 7.01L224.04 7.01Q223.36 5.46 223.17 5.46L223.17 5.46L223.17 5.46Q223.05 5.46 222.38 7.01L222.38 7.01L222.38 7.01Q221.70 8.55 221.70 8.71ZM235.33 5.32L235.33 5.32L235.33 5.32Q235.33 4.76 235.47 3.88L235.47 3.88L235.47 3.88Q235.47 3.85 235.47 3.78L235.47 3.78L235.47 3.78Q235.48 3.71 235.49 3.69L235.49 3.69L235.49 3.69Q235.49 3.67 235.50 3.62L235.50 3.62L235.50 3.62Q235.51 3.57 235.52 3.55L235.52 3.55L235.52 3.55Q235.54 3.53 235.56 3.49L235.56 3.49L235.56 3.49Q235.58 3.46 235.61 3.44L235.61 3.44L235.61 3.44Q235.63 3.43 235.68 3.42L235.68 3.42L235.68 3.42Q235.72 3.40 235.77 3.39L235.77 3.39L235.77 3.39Q235.83 3.39 235.90 3.39L235.90 3.39L235.90 3.39Q236.12 3.39 237.08 3.44L237.08 3.44L237.08 3.44Q238.04 3.50 239.85 3.50L239.85 3.50L239.85 3.50Q242.93 3.50 244.16 3.43L244.16 3.43L244.16 3.43Q244.17 3.43 244.21 3.42L244.21 3.42L244.21 3.42Q244.24 3.42 244.26 3.42L244.26 3.42L244.26 3.42Q244.41 3.42 244.47 3.50L244.47 3.50L244.47 3.50Q244.52 3.58 244.52 3.65L244.52 3.65L244.52 3.65Q244.52 3.75 244.57 4.24L244.57 4.24L244.57 4.24Q244.61 4.73 244.61 4.79L244.61 4.79L244.61 4.79Q244.61 5.14 244.57 5.23L244.57 5.23L244.57 5.23Q244.52 5.32 244.38 5.32L244.38 5.32L244.38 5.32Q244.27 5.32 244.23 5.15L244.23 5.15L244.23 5.15Q244.12 4.75 244.03 4.60L244.03 4.60L244.03 4.60Q243.95 4.45 243.67 4.34L243.67 4.34L243.67 4.34Q243.39 4.23 242.82 4.23L242.82 4.23L241.00 4.23L241.00 4.23Q240.66 4.23 240.58 4.36L240.58 4.36L240.58 4.36Q240.51 4.49 240.51 5.12L240.51 5.12L240.51 5.81L240.51 5.81Q240.51 7.69 240.48 9.11L240.48 9.11L240.48 9.11Q240.46 10.54 240.46 10.93L240.46 10.93L240.46 10.93Q240.46 11.13 240.46 11.43L240.46 11.43L240.46 11.43Q240.45 11.73 240.45 11.84L240.45 11.84L240.45 11.84Q240.45 12.45 240.65 12.64L240.65 12.64L240.65 12.64Q240.83 12.81 241.05 12.90L241.05 12.90L241.05 12.90Q241.28 12.99 241.44 13.01L241.44 13.01L241.44 13.01Q241.60 13.02 241.71 13.08L241.71 13.08L241.71 13.08Q241.82 13.13 241.82 13.26L241.82 13.26L241.82 13.26Q241.82 13.41 241.75 13.45L241.75 13.45L241.75 13.45Q241.68 13.50 241.49 13.50L241.49 13.50L241.49 13.50Q241.32 13.50 240.74 13.44L240.74 13.44L240.74 13.44Q240.17 13.38 239.93 13.38L239.93 13.38L239.93 13.38Q239.76 13.38 239.25 13.43L239.25 13.43L239.25 13.43Q238.74 13.48 238.50 13.48L238.50 13.48L238.50 13.48Q237.99 13.48 237.99 13.26L237.99 13.26L237.99 13.26Q237.99 13.12 238.07 13.07L238.07 13.07L238.07 13.07Q238.15 13.02 238.40 12.98L238.40 12.98L238.40 12.98Q238.64 12.95 238.71 12.94L238.71 12.94L238.71 12.94Q239.19 12.82 239.25 12.38L239.25 12.38L239.25 12.38Q239.39 11.14 239.39 7.08L239.39 7.08L239.37 4.58L239.37 4.58Q239.37 4.31 239.22 4.25L239.22 4.25L239.22 4.25Q239.06 4.19 238.31 4.19L238.31 4.19L238.31 4.19Q237.33 4.19 236.83 4.24L236.83 4.24L236.83 4.24Q236.33 4.30 236.25 4.35L236.25 4.35L236.25 4.35Q236.17 4.40 236.05 4.54L236.05 4.54L236.05 4.54Q235.93 4.70 235.85 4.91L235.85 4.91L235.85 4.91Q235.77 5.11 235.75 5.24L235.75 5.24L235.75 5.24Q235.73 5.38 235.67 5.47L235.67 5.47L235.67 5.47Q235.61 5.56 235.48 5.56L235.48 5.56L235.48 5.56Q235.33 5.56 235.33 5.32ZM252.50 8.69L252.50 8.69L252.50 8.69Q252.50 6.34 253.92 4.84L253.92 4.84L253.92 4.84Q255.33 3.33 257.92 3.33L257.92 3.33L257.92 3.33Q259.13 3.33 260.09 3.68L260.09 3.68L260.09 3.68Q261.06 4.03 261.62 4.54L261.62 4.54L261.62 4.54Q262.18 5.05 262.56 5.71L262.56 5.71L262.56 5.71Q262.93 6.37 263.07 6.92L263.07 6.92L263.07 6.92Q263.21 7.48 263.21 7.95L263.21 7.95L263.21 7.95Q263.21 9.86 262.47 11.16L262.47 11.16L262.47 11.16Q261.73 12.47 260.52 13.07L260.52 13.07L260.52 13.07Q259.31 13.66 257.73 13.66L257.73 13.66L257.73 13.66Q256.06 13.66 254.85 12.94L254.85 12.94L254.85 12.94Q253.64 12.21 253.07 11.10L253.07 11.10L253.07 11.10Q252.50 10.00 252.50 8.69ZM253.74 7.98L253.74 7.98L253.74 7.98Q253.74 8.54 253.89 9.19L253.89 9.19L253.89 9.19Q254.04 9.84 254.39 10.54L254.39 10.54L254.39 10.54Q254.74 11.23 255.24 11.78L255.24 11.78L255.24 11.78Q255.74 12.33 256.50 12.69L256.50 12.69L256.50 12.69Q257.26 13.05 258.17 13.05L258.17 13.05L258.17 13.05Q258.65 13.05 259.17 12.90L259.17 12.90L259.17 12.90Q259.70 12.75 260.22 12.45L260.22 12.45L260.22 12.45Q260.74 12.14 261.14 11.70L261.14 11.70L261.14 11.70Q261.55 11.26 261.81 10.62L261.81 10.62L261.81 10.62Q262.07 9.98 262.07 9.24L262.07 9.24L262.07 9.24Q262.07 6.71 260.74 5.30L260.74 5.30L260.74 5.30Q259.41 3.89 257.45 3.89L257.45 3.89L257.45 3.89Q255.91 3.89 254.82 4.93L254.82 4.93L254.82 4.93Q253.74 5.96 253.74 7.98ZM271.11 3.70L271.11 3.70L271.11 3.70Q271.11 3.47 271.52 3.47L271.52 3.47L273.84 3.47L273.84 3.47Q274.16 3.47 274.58 3.45L274.58 3.45L274.58 3.45Q275.00 3.43 275.24 3.43L275.24 3.43L275.24 3.43Q276.50 3.43 277.40 4.07L277.40 4.07L277.40 4.07Q278.29 4.70 278.29 5.78L278.29 5.78L278.29 5.78Q278.29 6.50 278.02 7.03L278.02 7.03L278.02 7.03Q277.75 7.57 277.42 7.81L277.42 7.81L277.42 7.81Q277.09 8.05 276.81 8.22L276.81 8.22L276.81 8.22Q276.54 8.40 276.54 8.46L276.54 8.46L276.54 8.46Q276.54 8.62 277.72 10.27L277.72 10.27L277.72 10.27Q278.89 11.91 279.33 12.38L279.33 12.38L279.33 12.38Q279.86 13.03 280.62 13.03L280.62 13.03L280.62 13.03Q280.81 13.03 280.81 13.20L280.81 13.20L280.81 13.20Q280.81 13.41 280.64 13.48L280.64 13.48L280.64 13.48Q280.48 13.55 279.78 13.55L279.78 13.55L279.78 13.55Q279.12 13.55 278.57 13.23L278.57 13.23L278.57 13.23Q277.87 12.82 276.21 10.09L276.21 10.09L276.21 10.09Q276.11 9.94 276.07 9.87L276.07 9.87L276.07 9.87Q275.39 8.78 275.03 8.78L275.03 8.78L274.74 8.78L273.88 8.78L273.88 8.78Q273.71 8.78 273.68 8.92L273.68 8.92L273.68 8.92Q273.64 9.06 273.64 9.77L273.64 9.77L273.64 9.77Q273.64 10.44 273.64 10.88L273.64 10.88L273.64 10.88Q273.64 11.31 273.65 11.43L273.65 11.43L273.65 11.43Q273.66 11.55 273.66 11.63L273.66 11.63L273.66 11.63Q273.66 11.70 273.66 11.75L273.66 11.75L273.66 11.75Q273.66 12.32 273.92 12.63L273.92 12.63L273.92 12.63Q274.19 12.95 274.52 13.00L274.52 13.00L274.52 13.00Q274.85 13.05 275.11 13.11L275.11 13.11L275.11 13.11Q275.38 13.17 275.38 13.31L275.38 13.31L275.38 13.31Q275.38 13.54 275.13 13.54L275.13 13.54L275.13 13.54Q275.11 13.54 274.16 13.49L274.16 13.49L274.16 13.49Q273.21 13.44 273.13 13.44L273.13 13.44L273.13 13.44Q272.72 13.44 272.16 13.47L272.16 13.47L272.16 13.47Q271.60 13.50 271.59 13.50L271.59 13.50L271.59 13.50Q271.29 13.50 271.29 13.27L271.29 13.27L271.29 13.27Q271.29 13.12 271.47 13.05L271.47 13.05L271.47 13.05Q271.66 12.99 271.88 12.96L271.88 12.96L271.88 12.96Q272.10 12.94 272.29 12.66L272.29 12.66L272.29 12.66Q272.47 12.38 272.47 11.86L272.47 11.86L272.47 11.86Q272.47 11.49 272.47 9.90L272.47 9.90L272.47 9.90Q272.48 8.30 272.48 7.45L272.48 7.45L272.48 7.45Q272.48 6.58 272.47 5.86L272.47 5.86L272.47 5.86Q272.47 5.14 272.47 5.08L272.47 5.08L272.47 5.08Q272.47 4.56 272.26 4.29L272.26 4.29L272.26 4.29Q272.05 4.02 271.79 3.98L271.79 3.98L271.79 3.98Q271.53 3.95 271.32 3.89L271.32 3.89L271.32 3.89Q271.11 3.84 271.11 3.70ZM273.64 5.54L273.64 5.94L273.64 5.94Q273.64 7.38 273.66 7.72L273.66 7.72L273.66 7.72Q273.67 8.06 273.76 8.12L273.76 8.12L273.76 8.12Q273.97 8.25 274.36 8.25L274.36 8.25L274.50 8.25L274.90 8.25L274.90 8.25Q276.09 8.25 276.60 7.70L276.60 7.70L276.60 7.70Q277.12 7.15 277.12 6.30L277.12 6.30L277.12 6.30Q277.12 5.43 276.44 4.72L276.44 4.72L276.44 4.72Q275.76 4.00 274.39 4.00L274.39 4.00L274.39 4.00Q273.87 4.00 273.76 4.28L273.76 4.28L273.76 4.28Q273.64 4.55 273.64 5.54L273.64 5.54Z"></path></g></svg>