<svg data-v-423bf9ae="" xmlns="http://www.w3.org/2000/svg" viewBox="0 0 172.89940965304595 60" class="font"><!----><!----><!----><g data-v-423bf9ae="" id="f91dbd23-296e-47f3-9ffc-f1277f4648e6" fill="white" transform="matrix(5.917159562968884,0,0,5.917159562968884,-7.6331343594554255,-24.91124246265788)"><path d="M1.29 14.08L5.26 14.08C8.23 14.08 10.37 12.01 10.37 9.18C10.37 6.34 8.25 4.28 5.31 4.28L1.29 4.28ZM2.94 12.60L2.94 5.77L5.28 5.77C7.21 5.77 8.71 7.20 8.71 9.20C8.71 11.19 7.25 12.60 5.35 12.60ZM11.65 11.41C11.65 12.99 12.98 14.15 14.73 14.15C15.81 14.15 16.81 13.68 17.68 12.85L19.21 14.35L20.03 13.51L18.44 11.96C18.83 11.42 19.17 10.79 19.46 10.09L18.41 9.31C18.16 9.98 17.86 10.57 17.53 11.07C16.69 10.25 16.00 9.55 15.47 8.95C16.67 8.32 17.85 7.62 17.85 6.27C17.85 5.07 16.84 4.21 15.37 4.21C13.85 4.21 12.82 5.12 12.82 6.43C12.82 7.13 13.12 7.83 13.76 8.69C12.66 9.28 11.65 10.02 11.65 11.41ZM12.98 11.28C12.98 10.49 13.61 9.97 14.42 9.51C15.04 10.21 15.82 11.00 16.80 11.98C16.18 12.59 15.50 12.94 14.78 12.94C13.78 12.94 12.98 12.26 12.98 11.28ZM14.10 6.41C14.10 5.74 14.60 5.22 15.39 5.22C16.11 5.22 16.58 5.64 16.58 6.29C16.58 7.15 15.78 7.66 14.83 8.15C14.34 7.48 14.10 6.93 14.10 6.41ZM21.42 14.08L25.40 14.08C28.36 14.08 30.51 12.01 30.51 9.18C30.51 6.34 28.38 4.28 25.44 4.28L21.42 4.28ZM23.07 12.60L23.07 5.77L25.41 5.77C27.34 5.77 28.84 7.20 28.84 9.20C28.84 11.19 27.38 12.60 25.48 12.60Z"></path></g><!----><!----></svg>